<?xml version="1.0" standalone="no"?>
<svg xmlns="http://www.w3.org/2000/svg" viewBox="0 0 75.002 36" width="75.002" height="36"><g fill="#F59C57" color="#F59C57" transform="translate(0 6) scale(0.4705883)"><svg width="44.0" height="51.0" x="0.0" y="0.0" viewBox="0 0 44 51"><path fill="currentColor" fill-rule="evenodd" d="M21.986 0L44 12.704v25.393L22.029 50.801.014 38.111 0 12.718 21.986 0zM22 7.428L6.43 16.425V34.42l15.599 8.996 15.555-9.01-.014-17.994L22 7.428zm-.001 5.403l10.907 6.302v12.561l-10.907 6.302-10.893-6.288-.015-12.575L22 12.83z"></path></svg></g><path fill="#2C0540" fill-rule="nonzero" d="M5.83 17.42L0 17.42L0 17.18L0.29 17.09Q1.18 16.85 1.18 15.94L1.18 15.94L1.18 2.88Q1.18 2.35 1.00 2.09Q0.82 1.82 0.34 1.73L0.34 1.73L0 1.66L0 1.42L4.08 0.02L4.32 0.26L4.54 1.01Q5.33 0.53 6.30 0.26Q7.27 0 8.30 0L8.30 0Q10.37 0 11.58 1.57Q12.79 3.14 12.79 6.07L12.79 6.07Q12.79 8.95 11.46 10.61Q10.13 12.26 7.70 12.26L7.70 12.26Q5.81 12.26 4.51 11.71L4.51 11.71L4.51 15.86Q4.51 16.82 5.38 17.06L5.38 17.06L5.83 17.18L5.83 17.42ZM6.55 11.57L6.55 11.57Q7.75 11.57 8.46 10.32Q9.17 9.07 9.17 6.17L9.17 6.17Q9.17 3.26 8.50 2.10Q7.82 0.94 6.55 0.94L6.55 0.94Q5.66 0.94 4.58 1.51L4.58 1.51L4.58 11.18Q5.50 11.57 6.55 11.57ZM17.38 12.26L17.38 12.26Q15.98 12.26 15.04 11.47Q14.09 10.68 14.09 9.19L14.09 9.19Q14.09 8.06 15.24 7.12Q16.39 6.17 18.86 5.69L18.86 5.69Q19.25 5.62 19.73 5.53Q20.21 5.45 20.74 5.35L20.74 5.35L20.74 3.46Q20.74 1.82 20.34 1.16Q19.94 0.50 19.10 0.50L19.10 0.50Q18.53 0.50 18.19 0.88Q17.86 1.25 17.76 2.16L17.76 2.16L17.71 2.42Q17.66 3.46 17.21 3.94Q16.75 4.42 16.08 4.42L16.08 4.42Q15.46 4.42 15.05 4.03Q14.64 3.65 14.64 3L14.64 3Q14.64 2.02 15.32 1.34Q16.01 0.67 17.14 0.34Q18.26 0 19.58 0L19.58 0Q21.72 0 22.88 1.04Q24.05 2.09 24.05 4.44L24.05 4.44L24.05 9.74Q24.05 10.82 25.06 10.82L25.06 10.82L25.58 10.82L25.80 11.02Q25.34 11.59 24.80 11.90Q24.26 12.22 23.28 12.22L23.28 12.22Q22.22 12.22 21.61 11.72Q21 11.23 20.81 10.42L20.81 10.42Q20.09 11.18 19.33 11.72Q18.58 12.26 17.38 12.26ZM18.84 10.80L18.84 10.80Q19.32 10.80 19.74 10.57Q20.16 10.34 20.74 9.86L20.74 9.86L20.74 5.83Q20.50 5.88 20.26 5.93Q20.02 5.98 19.70 6.02L19.70 6.02Q18.60 6.31 17.94 7.00Q17.28 7.68 17.28 8.83L17.28 8.83Q17.28 9.82 17.74 10.31Q18.19 10.80 18.84 10.80ZM32.52 11.90L26.30 11.90L26.30 11.66L26.66 11.57Q27.14 11.42 27.32 11.14Q27.50 10.85 27.50 10.39L27.50 10.39L27.50 2.88Q27.50 2.35 27.32 2.10Q27.14 1.85 26.66 1.75L26.66 1.75L26.30 1.66L26.30 1.42L30.43 0.02L30.67 0.26L30.89 2.33L30.89 2.52Q31.22 1.85 31.76 1.28Q32.30 0.72 32.96 0.36Q33.62 0 34.27 0L34.27 0Q35.18 0 35.66 0.50Q36.14 1.01 36.14 1.78L36.14 1.78Q36.14 2.59 35.68 3.04Q35.21 3.48 34.56 3.48L34.56 3.48Q33.55 3.48 32.78 2.47L32.78 2.47L32.74 2.42Q32.50 2.09 32.18 2.05Q31.87 2.02 31.61 2.35L31.61 2.35Q31.37 2.57 31.21 2.87Q31.06 3.17 30.91 3.55L30.91 3.55L30.91 10.25Q30.91 11.21 31.75 11.45L31.75 11.45L32.52 11.66L32.52 11.90ZM41.04 12.26L41.04 12.26Q39.86 12.26 38.93 11.99Q37.99 11.71 37.20 11.30L37.20 11.30L37.22 8.45L37.46 8.45L38.28 9.89Q38.81 10.85 39.44 11.32Q40.08 11.78 41.06 11.78L41.06 11.78Q42.22 11.78 42.92 11.27Q43.63 10.75 43.63 9.89L43.63 9.89Q43.63 9.10 43.13 8.59Q42.62 8.09 41.26 7.68L41.26 7.68L40.25 7.37Q38.78 6.94 37.94 6.02Q37.10 5.11 37.10 3.79L37.10 3.79Q37.10 2.21 38.35 1.10Q39.60 0 41.93 0L41.93 0Q42.86 0 43.69 0.20Q44.52 0.41 45.29 0.82L45.29 0.82L45.14 3.41L44.90 3.41L44.06 1.92Q43.61 1.13 43.16 0.80Q42.72 0.48 41.83 0.48L41.83 0.48Q41.02 0.48 40.30 0.94Q39.58 1.39 39.58 2.23L39.58 2.23Q39.58 3.05 40.19 3.53Q40.80 4.01 42 4.42L42 4.42L43.08 4.73Q44.81 5.26 45.55 6.18Q46.30 7.10 46.30 8.40L46.30 8.40Q46.30 10.15 44.92 11.21Q43.54 12.26 41.04 12.26Z" transform="translate(28.706, 9.288)"></path></svg>